<?xml version="1.0" encoding="iso-8859-1"?>
<!-- Generator: Adobe Illustrator 19.0.0, SVG Export Plug-In . SVG Version: 6.00 Build 0)  -->
<svg version="1.1" id="Layer_1" xmlns="http://www.w3.org/2000/svg" xmlns:xlink="http://www.w3.org/1999/xlink" x="0px" y="0px"
	 viewBox="0 0 512 512" style="enable-background:new 0 0 512 512;" xml:space="preserve">
<path style="fill:#FBD867;" d="M509.513,220.322C492.151,95.83,385.276,0,256,0C114.616,0,0,114.616,0,256s114.616,256,256,256
	c3.17,0,6.322-0.078,9.464-0.193L509.513,220.322z"/>
<path style="fill:#F9BE02;" d="M512,256c0-12.109-0.86-24.016-2.487-35.677L339.104,49.913l-84.468,207.45l-64.965-25.639
	L44.239,290.582l221.225,221.225C402.462,506.827,512,394.214,512,256z"/>
<polygon style="fill:#FFFFFF;" points="339.104,49.913 317.603,44.152 230.311,229.24 300.735,193.084 "/>
<path style="fill:#D8F4F2;" d="M317.6,44.152l-60.02,223.999l-31.33-55.108l25.297-94.399
	C260.973,83.47,286.231,56.771,317.6,44.152z"/>
<polygon style="fill:#B1EAE5;" points="300.735,193.084 279.077,273.913 231.964,261.289 275.905,199.735 "/>
<polygon style="fill:#7DDCD4;" points="275.905,199.735 257.574,268.152 214.57,256.63 226.251,213.043 "/>
<polygon style="fill:#D8F4F2;" points="467.848,194.4 462.087,172.898 238.088,232.919 250.711,280.029 "/>
<path style="fill:#B1EAE5;" d="M467.848,194.4l-223.998,60.02l11.523,43.006l137.983-36.973
	C428.53,251.028,455.23,225.769,467.848,194.4z"/>
<path style="fill:#FFFFFF;" d="M139.04,253.658l-5.761-21.502l48.121-12.893c15.538-4.164,36.619,1.485,47.994,12.86l25.243,25.242
	l-15.741,15.741l-25.243-25.242c-5.86-5.86-18.487-9.244-26.492-7.099L139.04,253.658z"/>
<path style="fill:#D8F4F2;" d="M258.342,372.96l12.893-48.121c2.145-8.005-1.239-20.631-7.099-26.492l-25.242-25.242l15.741-15.741
	l25.242,25.243c11.375,11.375,17.024,32.456,12.86,47.994l-12.893,48.121L258.342,372.96z"/>
<polygon style="fill:#263230;" points="301.868,339.521 296.107,361.022 280.367,376.764 253.104,349.5 258.865,327.998 "/>
<path style="fill:#02AF92;" d="M270.377,241.623l-31.481,15.741l-15.741,31.481c13.019,13.019,34.203,13.019,47.222,0
	C283.396,275.827,283.396,254.642,270.377,241.623z"/>
<path style="fill:#02C8A7;" d="M223.155,241.623c-13.019,13.019-13.019,34.203,0,47.222l47.222-47.222
	C257.358,228.604,236.174,228.604,223.155,241.623z"/>
<path style="fill:#FFFFFF;" d="M254.637,257.363c-4.34-4.34-11.401-4.34-15.741,0c-4.34,4.34-4.34,11.401,0,15.741
	c4.34,4.34,11.401,4.34,15.741,0C258.976,268.765,258.976,261.703,254.637,257.363z"/>
<g>
	
		<rect x="197.533" y="392.139" transform="matrix(-0.2588 0.9659 -0.9659 -0.2588 725.9945 271.7153)" style="fill:#1A534A;" width="122.431" height="44.519"/>
	<polygon style="fill:#1A534A;" points="172.479,210.131 150.978,215.893 135.237,231.633 162.5,258.896 184.002,253.135 	"/>
</g>
<rect x="36.39" y="230.973" transform="matrix(-0.9659 0.2588 -0.2588 -0.9659 257.4243 472.5755)" style="fill:#0E7563;" width="122.431" height="44.519"/>
<g>
</g>
<g>
</g>
<g>
</g>
<g>
</g>
<g>
</g>
<g>
</g>
<g>
</g>
<g>
</g>
<g>
</g>
<g>
</g>
<g>
</g>
<g>
</g>
<g>
</g>
<g>
</g>
<g>
</g>
</svg>
